# xmcd CD database file
#
# Track frame offsets:
#	187
#	14990
#	29692
#	48512
#	62982
#	84907
#	106590
#	122515
#	143422
#	161602
#	187835
#
# Disc length: 2830 seconds
#
# Revision: 3
# Processed by: cddbd v1.5.2PL0 Copyright (c) Steve Scherf et al.
# Submitted via: CDex 1.70beta3
#
DISCID=8a0b0c0b
DTITLE=Keith Richards - Talk Is Cheap
DYEAR=1988
DGENRE=Rock
TTITLE0=Big Enough
TTITLE1=Take It So Hard
TTITLE2=Struggle
TTITLE3=I Could Have Stood You Up
TTITLE4=Make No Mistake
TTITLE5=You Don't Move Me
TTITLE6=How I Wish
TTITLE7=Rockawhile
TTITLE8=Whip It Up
TTITLE9=Locked Away
TTITLE10=It Means A Lot
EXTD=YEAR: 1988
EXTT0=
EXTT1=
EXTT2=
EXTT3=
EXTT4=
EXTT5=
EXTT6=
EXTT7=
EXTT8=
EXTT9=
EXTT10=
PLAYORDER=
